<svg width="100" height="100" viewBox="0 0 100 100" fill="none" xmlns="http://www.w3.org/2000/svg">
<rect width="100" height="100" fill="#1E1E1E"/>
<path d="M0 32C0 14.3269 14.3269 0 32 0H100V68C100 85.6731 85.6731 100 68 100H0V32Z" fill="url(#paint0_linear_0_1)"/>
<path d="M41.5179 54.1875H37.0536C36.317 54.1875 35.7143 53.5652 35.7143 52.8047V48.1953C35.7143 47.4348 36.317 46.8125 37.0536 46.8125H41.5179C42.2545 46.8125 42.8571 47.4348 42.8571 48.1953V52.8047C42.8571 53.5652 42.2545 54.1875 41.5179 54.1875ZM53.5714 52.8047V48.1953C53.5714 47.4348 52.9688 46.8125 52.2321 46.8125H47.7679C47.0312 46.8125 46.4286 47.4348 46.4286 48.1953V52.8047C46.4286 53.5652 47.0312 54.1875 47.7679 54.1875H52.2321C52.9688 54.1875 53.5714 53.5652 53.5714 52.8047ZM64.2857 52.8047V48.1953C64.2857 47.4348 63.683 46.8125 62.9464 46.8125H58.4821C57.7455 46.8125 57.1429 47.4348 57.1429 48.1953V52.8047C57.1429 53.5652 57.7455 54.1875 58.4821 54.1875H62.9464C63.683 54.1875 64.2857 53.5652 64.2857 52.8047ZM53.5714 63.8672V59.2578C53.5714 58.4973 52.9688 57.875 52.2321 57.875H47.7679C47.0312 57.875 46.4286 58.4973 46.4286 59.2578V63.8672C46.4286 64.6277 47.0312 65.25 47.7679 65.25H52.2321C52.9688 65.25 53.5714 64.6277 53.5714 63.8672ZM42.8571 63.8672V59.2578C42.8571 58.4973 42.2545 57.875 41.5179 57.875H37.0536C36.317 57.875 35.7143 58.4973 35.7143 59.2578V63.8672C35.7143 64.6277 36.317 65.25 37.0536 65.25H41.5179C42.2545 65.25 42.8571 64.6277 42.8571 63.8672ZM64.2857 63.8672V59.2578C64.2857 58.4973 63.683 57.875 62.9464 57.875H58.4821C57.7455 57.875 57.1429 58.4973 57.1429 59.2578V63.8672C57.1429 64.6277 57.7455 65.25 58.4821 65.25H62.9464C63.683 65.25 64.2857 64.6277 64.2857 63.8672ZM75 33.9062V74.4688C75 77.5225 72.6004 80 69.6429 80H30.3571C27.3996 80 25 77.5225 25 74.4688V33.9062C25 30.8525 27.3996 28.375 30.3571 28.375H35.7143V22.3828C35.7143 21.6223 36.317 21 37.0536 21H41.5179C42.2545 21 42.8571 21.6223 42.8571 22.3828V28.375H57.1429V22.3828C57.1429 21.6223 57.7455 21 58.4821 21H62.9464C63.683 21 64.2857 21.6223 64.2857 22.3828V28.375H69.6429C72.6004 28.375 75 30.8525 75 33.9062ZM69.6429 73.7773V39.4375H30.3571V73.7773C30.3571 74.1576 30.6585 74.4688 31.0268 74.4688H68.9732C69.3415 74.4688 69.6429 74.1576 69.6429 73.7773Z" fill="#D9D9D9"/>
<defs>
<linearGradient id="paint0_linear_0_1" x1="92.5" y1="1.54972e-07" x2="2" y2="97" gradientUnits="userSpaceOnUse">
<stop stop-color="#7B6CFF" stop-opacity="0.1"/>
<stop offset="0.5" stop-color="#7B6CFF" stop-opacity="0.3"/>
<stop offset="0.75" stop-color="#7B6CFF" stop-opacity="0.5"/>
<stop offset="0.875" stop-color="#7B6CFF" stop-opacity="0.7"/>
<stop offset="1" stop-color="#7B6CFF"/>
</linearGradient>
</defs>
</svg>
